<svg fill="#FFFFFF" viewBox="0 0 14 14" xmlns="http://www.w3.org/2000/svg">
    <path d="m1 1h12v12h-12zm11.017 9.138c-.0875-.5475-.444-1.0075-1.5015-1.4365-.368-.1725-.777-.2925-.8985-.57-.0455-.165-.0525-.255-.023-.3525.075-.323.4575-.42.7575-.33.195.06.375.21.488.45.517-.338.517-.338.8775-.5625-.135-.21-.202-.3005-.293-.39-.315-.3525-.7345-.5325-1.417-.517l-.3525.0445c-.338.0825-.66.2625-.855.5025-.57.6455-.4055 1.7705.2845 2.2355.6825.51 1.6805.622 1.808 1.1025.12.585-.435.7725-.983.705-.4055-.09-.63-.293-.8775-.668l-.915.5255c.105.24.225.3445.405.5545.87.878 3.045.833 3.4355-.502.0145-.045.12-.3525.037-.825zm-4.4915-3.6225h-1.124c0 .969-.0045 1.932-.0045 2.9025 0 .616.0315 1.1815-.069 1.3555-.165.3445-.59.3005-.783.24-.198-.098-.2985-.233-.415-.4275-.0315-.0525-.055-.098-.0635-.098l-.9125.5625c.1525.315.375.586.662.7585.4275.255 1.002.3375 1.6035.2025.3915-.113.729-.3455.9055-.7055.255-.465.201-1.035.1985-1.673.006-1.027 0-2.0545 0-3.0895z"/>
</svg>