<svg viewBox="0 0 1024.002 1089.841" xmlns="http://www.w3.org/2000/svg">
    <path d="M249.68 1008.843c49.53 0 89.726-35.982 89.726-80.354 0-15.856-5.197-30.597-14.08-43.07h2.42c-39.44-43.105-35.244-78.33 6.52-90.652h138.087c15.572 0 28.328-12.756 28.328-28.328V643.812c9.677-83.68 45.413-58.81 87.46-32.92 101.633 62.59 169.21-85.702 87.12-136.443-64.5-39.876-92.45 28.667-139.656 21.618-18.236-2.74-30.936-22.47-34.923-52.536V322.416c0-15.572-12.755-28.328-28.327-28.328h-120.87c-57.28-7.22-68.052-45.77-23.737-94.206h-2.42c8.883-12.473 14.08-27.213 14.08-43.087 0-44.353-40.196-80.335-89.727-80.335-49.513 0-89.71 35.982-89.71 80.335 0 15.874 5.198 30.615 14.06 43.087h-.623c44.316 48.435 33.563 86.987-23.736 94.206H28.33C12.756 294.088 0 306.844 0 322.416v126.332c9.11 52.007 46.583 60.473 93.28 17.745v.624c12.473-8.882 27.213-14.06 43.087-14.06 44.353.038 80.354 40.177 80.335 89.708.02 49.512-35.982 89.69-80.335 89.69-15.874.037-30.615-5.18-43.087-14.06v2.418C46.583 578.085 9.11 586.646 0 638.653V766.44c0 15.572 12.756 28.328 28.328 28.328h138.56c41.763 12.32 45.96 47.547 6.52 90.653h.623c-8.862 12.474-14.06 27.214-14.06 43.07 0 44.37 40.197 80.353 89.71 80.353zm524.643 4.536h-.19c-49.53 0-89.707-35.983-89.707-80.336 0-15.874 5.178-30.615 14.06-43.087h-.624c39.42-43.106 35.244-78.313-6.52-90.653h-138.56c-15.57 0-28.327-12.756-28.327-28.328V643.208c6.67-19.35 15.137-26.192 25.153-26.38 4.554-.077 9.41 1.19 14.55 3.325 14.533 5.972 31.466 18.596 50.005 25.74 71.34 27.495 132.57-41.917 128.487-113.237-.907-15.93-7.35-31.616-16.82-46.054-36.377-55.654-90.35-60.946-142.357-29.178-26.533 16.214-47.585 28.48-59.66-9.714l.642-120.757c.076-15.572 12.756-28.328 28.328-28.328h121.343c57.28-7.22 68.05-45.77 23.736-94.206h.624c-8.882-12.474-14.06-27.214-14.06-43.088 0-44.353 40.177-80.335 89.708-80.335h.19c49.53 0 89.707 35.982 89.707 80.335 0 15.874-5.177 30.615-14.06 43.087h.625c-44.316 48.434-33.544 86.986 23.736 94.205h121.344c15.572 0 28.328 12.756 28.328 28.328v126.332c-9.11 52.026-46.564 60.473-93.28 17.745v.624c-12.473-8.882-27.213-14.06-43.087-14.06-44.353.038-80.354 40.177-80.335 89.69-.02 49.53 35.982 89.707 80.335 89.707 15.874.04 30.615-5.177 43.087-14.06v2.42c46.716-42.728 84.17-34.167 93.28 17.86v127.767c0 15.572-12.756 28.328-28.328 28.328h-138.56c-41.763 12.34-45.94 47.547-6.52 90.653h-.623c8.883 12.473 14.06 27.213 14.06 43.087 0 44.353-40.176 80.335-89.707 80.335z"/>
</svg>