<svg viewBox="0 0 1024.001 1068.467" xmlns="http://www.w3.org/2000/svg">
    <path d="M129.56 553.546H894.44c71.522.076 129.482 58.036 129.558 129.55v170.08c-.076 71.523-58.036 129.483-129.55 129.56H129.557C58.036 982.658.076 924.698 0 853.183v-170.08c.076-71.522 58.036-129.482 129.55-129.558h.008zm764.883 340.146c22.366-.025 40.49-18.15 40.515-40.512V683.105c-.025-22.366-18.15-40.49-40.512-40.515H129.56c-22.366.025-40.49 18.15-40.515 40.512v170.075c.025 22.366 18.15 40.49 40.512 40.515h.002zM216.377 1023.25h-89.043v-85.037h89.043zm680.292 0h-89.044v-85.037h89.043zM256.89 768.14c0 23.36-18.935 42.297-42.295 42.297S172.3 791.5 172.3 768.14c0-23.358 18.935-42.295 42.295-42.295s42.296 18.936 42.296 42.296zM512 812.663h-85.036V723.62H512zm170.074 0h-85.037V723.62h85.037zm170.073 0H767.11V723.62h85.037zM554.297 428.44c0 23.36-18.936 42.296-42.296 42.296s-42.295-18.936-42.295-42.296S488.64 386.144 512 386.144s42.297 18.936 42.297 42.296zm46.436-88.732c-22.735-22.65-54.098-36.653-88.732-36.653s-65.996 14.003-88.735 36.657l.004-.004-62.955-62.954c38.858-38.736 92.475-62.687 151.686-62.687s112.83 23.95 151.692 62.693l-.005-.005zm120.12-120.253c-53.383-53.615-127.255-86.792-208.875-86.792s-155.49 33.177-208.863 86.782l-.01.01-63.087-62.865c69.508-69.803 165.69-112.997 271.96-112.997s202.454 43.194 271.95 112.983l.012.013z"/>
</svg>