<svg viewBox="0 0 56 56" xmlns="http://www.w3.org/2000/svg">
    <path d="m5.4648 25.0352c.4454.4453 1.1016.4219 1.5234-.0234 5.5313-5.8829 12.8438-8.9766 21.0235-8.9766 8.2265 0 15.5625 3.1171 21.0702 9 .3984.3984 1.0316.3984 1.4535-.0469l3.1171-3.1172c.3749-.3984.3749-.914.0701-1.2891-5.2968-6.5156-15.2578-11.3203-25.7109-11.3203s-20.4141 4.8047-25.711 11.3203c-.3281.3751-.3046.8907.0704 1.2891zm9.375 9.3984c.4688.4922 1.0782.4453 1.5235-.0703 2.7187-3.0235 7.1249-5.2031 11.6484-5.1562 4.5703-.0469 8.9531 2.2031 11.6953 5.2265.4453.4687 1.0312.4687 1.4766-.0234l3.4922-3.4453c.3749-.3751.4218-.8672.0703-1.2657-3.3985-4.1953-9.7032-7.289-16.7344-7.289-7.0313 0-13.3359 3.1172-16.7344 7.289-.3515.3985-.3047.8672.0703 1.2657zm13.1719 12.3047c.4922 0 .9375-.2578 1.8047-1.1016l5.4843-5.2734c.3516-.3281.4219-.8437.1173-1.2422-1.4766-1.8984-4.2422-3.5391-7.4063-3.5391-3.2344 0-6.0469 1.711-7.5 3.6797-.211.3281-.1406.7735.2109 1.1016l5.4844 5.2734c.8672.8438 1.3125 1.1016 1.8047 1.1016z"/>
</svg>