<svg viewBox="0 0 1024 1176.463" xmlns="http://www.w3.org/2000/svg" fill="#FFFFFF">
    <path d="M968.27 312.857h2.398c2.8 0 4-.4 4-2.8 0-1.998-1.2-2.798-4-2.798h-2.796v5.597zm-.8 11.997h-4V304.06l8-.4c.334-.026.723-.04 1.116-.04 2.197 0 4.288.456 6.182 1.28l-.1-.04c1.448.793 2.413 2.305 2.413 4.044 0 .125-.004.25-.014.37v-.015c0 2.398-1.6 3.998-4.398 4.398 2 .8 2.8 2.4 3.6 5.2l1.2 5.197h-4.8c-.8-.8-.8-2.8-1.6-5.198-.8-2-1.6-2.8-4.4-2.8h-2l-.8 8.798zm-11.997-10.397c-.004.134-.006.29-.006.45 0 8.588 6.963 15.55 15.552 15.55.157 0 .314 0 .47-.006l-.022.002c8.487-.446 15.2-7.437 15.2-15.995s-6.713-15.55-15.16-15.994l-.04-.002c-.403-.038-.87-.06-1.344-.06-8.125 0-14.712 6.586-14.712 14.71 0 .474.022.943.066 1.405l-.005-.06zm36.39 0c.003.142.005.31.005.476 0 11.022-8.935 19.956-19.956 19.956-.437 0-.87-.015-1.3-.043l.058.003c-.24.01-.52.016-.804.016-11.128 0-20.175-8.913-20.39-19.99v-.02c.258-11.52 9.642-20.762 21.19-20.794h.004c.302-.016.656-.025 1.01-.025 11.148 0 20.185 9.037 20.185 20.184v.25-.014zM765.526 535.593h47.586v-46.387h-47.986V441.62h-45.184v47.986h-47.986v45.987h47.986v47.187h45.987v-46.784zm-565.037 0h141.56v-46.387H200.89v46.387zM551.988 512c33.184-71.092 95.155-124.027 170.51-144.336l1.842-.423c6.217-1.06 13.377-1.664 20.68-1.664 1.447 0 2.888.024 4.323.07l-.21-.004c1.327-.042 2.885-.066 4.45-.066 81.657 0 148.11 65.094 150.3 146.22l.005.204c-2.647 81.407-69.275 146.393-151.082 146.393-1.15 0-2.3-.013-3.444-.038l.17.003c-8 0-16.795-.8-24.793-1.6-77.13-20.863-139.054-73.752-171.67-143.143l-.68-1.615zM291.264 655.958c-6.316 1.06-13.593 1.666-21.012 1.666-1.47 0-2.935-.024-4.394-.07l.213.004c-.97.023-2.115.035-3.262.035-81.726 0-148.263-65.032-150.687-146.17l-.004-.223c2.647-81.407 69.276-146.393 151.082-146.393 1.15 0 2.3.013 3.444.038l-.17-.003c8 0 16.796.8 25.193 1.6 77.333 20.454 139.408 73.488 171.68 143.144l.672 1.614c-32.81 71.37-94.944 124.458-170.54 144.353l-1.812.405zM984.664 512c-2.45-125.76-104.975-226.77-231.092-226.77-1.42 0-2.838.013-4.252.038l.212-.003c-11.597 0-23.993.8-35.99 2-87.402 17.426-160.12 69.71-204.376 141.425l-.766 1.333c-45.53-72.726-118.208-124.857-203.51-142.41l-2.03-.35c-11.997-1.2-23.993-1.998-35.99-1.998-1.083-.018-2.36-.03-3.64-.03-126.116 0-228.64 101.007-231.09 226.536l-.004.23C34.59 637.758 137.114 738.763 263.23 738.763c1.28 0 2.556-.01 3.83-.03h-.19c13-.03 25.766-.9 38.283-2.56l-1.495.162c87.494-17.243 160.35-69.4 204.778-141.038l.763-1.32C554.64 666.784 627.36 718.95 712.722 736.39l2.017.345c12.396 1.2 23.993 2 36.39 2 .725.007 1.582.012 2.44.012 126.11 0 228.63-100.997 231.088-226.518l.004-.23z"/>
</svg>