<svg viewBox="0 0 24 24" xmlns="http://www.w3.org/2000/svg" fill="#FFFFFF">
    <path d="m21.6225861 11.1091377-8.7321047-8.73188701c-.5027833-.50300092-1.3183369-.50300092-1.8215555 0l-1.8130669 1.81350223 2.2999614 2.30017902c.5345609-.18065372 1.1474776-.05941984 1.5736463.36653118.4283452.42878053.5484908 1.046921.3632663 1.5834408l2.2170348 2.21681708c.5365198-.1850068 1.1550956-.0655141 1.5834408.3637017.5985515.5983339.5985515 1.5684226 0 2.1671918-.5989868.5989868-1.5688579.5989868-2.1680624 0-.4501107-.4505461-.5615501-1.1122176-.3332299-1.6668027l-2.0677234-2.06750577v5.44072437c.1458289.0722615.2836046.168465.4052738.2896989.5985515.5985515.5985515 1.5684226 0 2.1678447-.5985515.5983339-1.5690756.5983339-2.1674094 0-.5985515-.5994221-.5985515-1.5692932 0-2.1678447.1480054-.1477878.3193-.2596625.5021303-.3345359v-5.49100264c-.1828303-.0746557-.3536896-.1856598-.5021303-.33431822-.4533756-.45315791-.5624208-1.11874718-.3297475-1.67550891l-2.26753075-2.26774841-5.9876916 5.98703868c-.50278327.5034362-.50278327 1.3189898 0 1.8219907l8.73253995 8.7318871c.5027833.5027832 1.3181193.5027832 1.8215555 0l8.6914032-8.6914032c.5032185-.5030009.5032185-1.3189899 0-1.8219908" fill-rule="evenodd"/>
</svg>