<svg viewBox="0 0 14 14" xmlns="http://www.w3.org/2000/svg" fill="#FFFFFF">
    <path d="m7.251794.99999832c-.077494 0-.1574887.004-.2394828.0105-2.1133484.166488-1.5528886 2.403328-1.5848863 3.148775-.038497.54646-.1499893.97693-.5254624 1.510391-.4424682.525463-1.0634237 1.374902-1.3579026 2.260338-.13899.41597-.2049853.84194-.1434897 1.244411-.019499.017-.037997.034-.055496.0675-.1299907.13399-.2244839.300479-.3309763.41947-.099493.09949-.2424826.13349-.3984714.199986-.1564888.06799-.3289764.13449-.431969.3404747-.044997.09399-.067995.196486-.065995.300479 0 .09949.013499.200485.027498.26798.028998.199486.057996.364474.019499.484966-.1239911.339975-.13949.572959-.052496.742446.086994.166988.2674808.234484.4694663.300479.405471.09999.9549316.06749 1.3874005.299478.4629668.233484.9329331.335476 1.3079063.234984.2629811-.0575.4849652-.231484.6039566-.472467.293479-.0015.6149559-.13449 1.129919-.166988.3494749-.029.7869436.133491 1.2889076.09949.012499.0675.031498.09949.056996.166988l.0015.0015c.195486.388972.5564601.56596.9419324.535462.3854724-.03.7959428-.267981 1.1284188-.652953.315477-.382473.84144-.541962 1.188915-.751446.173987-.09949.314477-.234484.324476-.42647.0115-.199986-.09949-.405971-.356974-.688451v-.0485l-.0015-.0015c-.08499-.09999-.124991-.267481-.168988-.4629667-.0425-.200485-.09099-.392972-.245982-.522962h-.0015c-.0295-.027-.0615-.0335-.09399-.0675-.028-.019-.0605-.031-.09499-.032.215484-.638954.13199-1.274909-.08649-1.846868-.266492-.70494102-.732459-1.31889702-1.087433-1.74136702-.3979715-.502464-.7879435-.97843-.780444-1.684379.013499-1.075923.1184915-3.06628-1.771873-3.06927998zm.2644811 1.70237798h.0065c.1064924 0 .1979858.031.2919791.09899.095493.0675.1649881.165988.2194842.266481.052496.129491.078994.229483.082994.361974 0-.01.003-.02.003-.0295v.052c-.0009999-.0035-.002-.0075-.002-.0105l-.002-.012c-.0009999.121491-.026498.241483-.074995.352975-.023498.06249-.059496.119991-.1064923.167488-.014499-.008-.028498-.015-.043997-.021-.052496-.0225-.099493-.032-.1424898-.06649-.035497-.014-.072495-.0255-.1094921-.033.024498-.0295.072495-.0665.090993-.09899.026498-.064.040997-.13199.043997-.200985v-.0095c.0009999-.0675-.009-.13549-.030498-.199985-.022498-.0675-.050496-.100493-.091494-.166988-.041997-.033-.083494-.066-.1334904-.066h-.008c-.046497 0-.087994.015-.1309906.066-.047497.047-.082994.103492-.1024927.166988-.026498.06349-.041997.13199-.044997.199985v.0095c.0009999.0445.004.08949.01.13349-.096493-.0335-.2189843-.06749-.3034782-.100993-.005-.0325-.008-.066-.009-.09949v-.01c-.004-.13199.021498-.262981.074995-.384472.040997-.109492.1159917-.202986.2149846-.266481.085494-.0645.1894864-.09949.2969787-.09949zm-1.4808938.0295h.017999c.070995 0 .1349903.024.1994857.0675.072995.06449.1319905.14399.1719876.232483.044997.09949.070495.200486.076494.333477v.002c.0035.067.003.100493-.0009999.132991v.04c-.014999.0035-.027998.009-.041497.012-.075995.0275-.1369902.06749-.1964859.09999.006-.0445.0065-.08949.0015-.133491v-.0075c-.006-.06649-.019499-.09949-.040997-.166488-.015499-.051-.043997-.09649-.082994-.13349-.024498-.0225-.057496-.034-.091494-.032h-.010499c-.035497.003-.064995.0205-.092993.06599-.031998.0385-.052496.08549-.059996.13499-.013499.054-.017499.109493-.011499.165489v.007c.006.06749.018499.100493.040497.166988.022498.06699.048496.09999.082494.13399.0055.0045.010499.009.016999.012-.034998.0285-.058496.035-.087994.06799-.018499.014-.039997.03-.065495.034-.051996-.0625-.097993-.12999-.1374901-.200985-.047997-.104993-.072995-.218985-.077494-.333476-.0085-.112992.0055-.225984.039997-.333976.027498-.09849.075995-.189487.1414898-.267481.063995-.06649.1299907-.09999.2089851-.09999zm.6854508.852939c.1654881 0 .3659738.0325.6074564.199485.1464895.09999.2614813.134491.5264623.233984h.0015c.1274908.06799.2024855.13299.2389828.199485v-.0655c.036497.07349.038997.158989.008.234983-.061496.155489-.2579815.321977-.5319619.42147v.001c-.1339904.06749-.250482.166488-.3874722.232483-.1379901.0675-.2939789.14599-.5059637.133491-.075995.004-.1524891-.0075-.2239839-.0335-.054996-.03-.1089922-.06299-.1609885-.09899-.097493-.06749-.181487-.165988-.3059781-.232483v-.0025h-.0025c-.199986-.122989-.3079783-.25598-.3429758-.355472-.034497-.133991-.0025-.234484.096493-.299979.111992-.0675.1899864-.13549.2414827-.167988.051996-.037.071495-.051.087994-.0655h.0009999v-.0015c.084494-.100993.2179844-.234483.4194699-.300479.069495-.018.1469895-.0325.2329833-.0325zm1.3993996 1.071423c.1794872.708449.5984571 1.737375.8679378 2.23634.1429898.26698.4274693.82944.5509605 1.511891.077994-.0025.1644882.009.2564816.032.3229764-.83544-.2729804-1.733376-.544461-1.982858-.110492-.100493-.1159916-.167488-.061496-.167488.2944788.266981.682451.785944.8229414 1.378401.06449.267481.07949.551961.0105.83494.0335.014.06749.0305.102493.0335.515963.266981.706449.468966.614956.768445v-.0215c-.0305-.0015-.06 0-.09049 0h-.0075c.07549-.233483-.09099-.41247-.532462-.611956-.4574676-.199985-.8229414-.167988-.885437.232484-.0035.0215-.006.033-.0085.0675-.033998.0115-.069495.0265-.1044926.032-.2149845.133991-.3309762.334476-.3964715.593458-.064995.266481-.084994.5779577-.1024927.9344327v.0015c-.010499.166988-.085494.41897-.1594885.675451-.7499462.535962-1.7898717.768945-2.6743082.166988-.055496-.09649-.1229912-.186986-.2009856-.266481-.036997-.06249-.083994-.118491-.1374902-.166988.090994 0 .1689879-.0145.2324834-.0335.072495-.0335.1284907-.09399.1569887-.166988.053996-.133491 0-.348475-.1724876-.581459-.1724905-.2334927-.4654695-.4974737-.8939387-.7604547-.3149774-.199486-.4929647-.434969-.5749588-.69795-.082494-.266981-.071495-.542461-.0075-.822441.1224913-.534962.4364687-1.054924.6369544-1.381401.053496-.0325.018499.0675-.2039854.486965-.1979858.375473-.5704591 1.248411-.060996 1.926862.018999-.494465.1289907-.98243.3234768-1.437897.2819797-.638954.8714375-1.751874.9179341-2.633811.023998.018.1084923.06749.1444897.100993.1089922.0665.1899864.166488.2949788.232483.1054925.100493.2384829.167488.4379686.167488.019499.0015.037497.003.055496.003.2054853 0 .3644739-.06699.4979643-.133991.1449896-.067.2604813-.166988.3699735-.199985h.0025c.2334833-.06749.41797-.200986.5224625-.349975zm1.0929217 4.478679c.018499.300478.1714877.622455.4409683.68845.2939785.067.7169483-.166488.8954353-.382472l.105493-.0045c.157488-.004.288479.005.423469.133491l.0015.0015c.103993.09949.152489.265481.195486.4379687.0425.200486.077.389972.204486.532962.242982.263481.322476.452967.317977.569959l.0015-.003v.009l-.0015-.006c-.0075.130991-.09249.197986-.248982.297479-.314978.200485-.872938.355974-1.228412.784943-.308978.368474-.6854509.569459-1.017927.595458-.3319762.0265-.6184557-.09999-.7869436-.448968l-.0025-.0015c-.1049925-.200486-.059996-.512463.027998-.844939.087994-.333977.2139846-.672452.2314834-.948932.018499-.356975.037997-.6674527.097493-.9069347.059996-.232484.1539889-.398472.320477-.491965l.022498-.011zm-5.4071123.0245h.005c.026498 0 .052496.0025.078494.007.1879866.0275.3529747.166489.5114634.375974l.4549673.8319397.0015.0015c.1214913.266481.376973.531962.5944574.818941.2169844.298979.3849724.565459.3644739.784944v.003c-.028498.371973-.2394829.573958-.5624597.646953-.3224769.0675-.7599455.001-1.1974141-.231983-.4839653-.267981-1.0589241-.234483-1.4283976-.300979-.1844868-.033-.3054781-.100492-.3614741-.200485-.055496-.09949-.056496-.300479.061496-.614956v-.0015l.0009999-.0015c.058496-.166988.014999-.376473-.013499-.55946-.027498-.200485-.041497-.354474.021499-.469966.079994-.166988.1979858-.199486.3444753-.2664807.1474894-.0675.320477-.100993.4579671-.234483h.001v-.0015c.1279908-.13399.222484-.300479.333976-.41897.094993-.100493.1899864-.167988.3314762-.167988zm3.5792434-4.536675c-.2174844.100493-.4724662.267481-.7439467.267481-.2709806 0-.4849652-.13349-.6394541-.232983-.077495-.06699-.13999-.133991-.1869866-.167488-.081994-.067-.071995-.166988-.036997-.166988.054496.008.064495.06749.099493.100493.047996.033.1074923.09949.180487.166488.1454896.09999.3399757.233483.5829582.233483.2424827 0 .5264623-.13349.6989499-.232983.097493-.0675.2224841-.166988.3239768-.233484.077994-.0685.074495-.13399.13949-.13399.064495.008.016999.067-.073495.166488-.090494.06749-.2304835.167488-.3449753.233983v-.0005zm-.5409613-.791943v-.011c-.003-.0095.0065-.021.014499-.025.036997-.0215.089994-.0135.1299907.002.031498 0 .079994.0335.074995.0675-.003.0245-.042497.033-.067495.033-.027498 0-.045997-.0215-.070495-.034-.025998-.009-.072995-.004-.081494-.0325zm-.2754802 0c-.01.029-.056496.0245-.082994.033-.023498.0125-.042997.034-.069495.034-.025498 0-.065495-.0095-.068495-.034-.0045-.033.043997-.06649.074995-.06649.040497-.0155.091993-.0235.1294907-.0025.0095.0045.017999.015.014999.025v.0105h.0015z"/>
</svg>